<svg xmlns="http://www.w3.org/2000/svg" viewBoxSize="575" data-root-id="7038449257328" id="Layer_1" dataName="Layer 1" viewBox="212.99989318847656 118 574.0001220703125 783.8700561523438" height="74" width="54.18750193277995" y="221.0850067138672" x="260.406" preserveAspectRatio="xMinYMin" zoom="1" editorType="buyer" data-layer-role="icon" style="position: absolute; height: 74px; width: 54.1875px; top: 221.085px; left: 260.406px;"><path class="cls-1" d="M618,786.66l-27.5,19.28-90.43-68.78-.05,0-.06,0-90.42,68.78L382,786.67a3.31,3.31,0,0,1,.3-.25L484,709.08V667.93h.09l4.69,4.69c3.32,3.31,6.67,6.89,11.3,6.89s8.74-4.42,11.14-6.89l4.66-4.69H516v41.16l101.68,77.33Z" name="Layer %{number}" zoom="1" data-layer-id="2023094857350" style="fill: rgb(225, 200, 87); fill-opacity: 1;"/><polygon class="cls-1" points="500 737.12 500.05 737.16 499.94 737.16 500 737.12" name="Layer %{number}" zoom="1" data-layer-id="9259471957361" style="fill: rgb(225, 200, 87); fill-opacity: 1;"/><path class="cls-1" d="M500,901.87a29.59,29.59,0,0,1-17-5.33l-192.56-135A180.12,180.12,0,0,1,213,613.6V287.8a70.19,70.19,0,0,1,25.76-54.45A50.76,50.76,0,0,1,271,222H729.11a50.64,50.64,0,0,1,32,11.31A70.19,70.19,0,0,1,787,287.8V613.89A179.59,179.59,0,0,1,709.7,761.46L517,896.54A29.59,29.59,0,0,1,500,901.87Zm1.38-31.55h0ZM271,254a18.72,18.72,0,0,0-11.88,4.11A38.32,38.32,0,0,0,245,287.8V613.6a148.15,148.15,0,0,0,63.74,121.73L500,869.35,691.4,735.21A147.63,147.63,0,0,0,755,613.89V287.8a38.29,38.29,0,0,0-14.1-29.75A18.56,18.56,0,0,0,729.11,254Z" name="Layer %{number}" zoom="1" data-layer-id="0646883457372" style="fill: rgb(225, 200, 87); fill-opacity: 1;"/><path class="cls-1" d="M755,287.8v25.77L573.18,423.36v187.4s-59.56,59.39-62,61.86-6.5,6.89-11.14,6.89-8-3.58-11.3-6.89l-62-61.86V423.36L245,313.57V287.8a38.58,38.58,0,0,1,1.51-10.7L458.82,405.3V597.49L500,638.6l41.18-41.11V405.3L753.46,277.1A38.58,38.58,0,0,1,755,287.8Z" name="Layer %{number}" zoom="1" data-layer-id="6183466257383" style="fill: rgb(225, 200, 87); fill-opacity: 1;"/><path class="cls-1" d="M641.33,176v32H358.67V176a32,32,0,0,1,32-32h.08v32H484V118h32v58h93.25V144h.09A32,32,0,0,1,641.33,176Z" name="Layer %{number}" zoom="1" data-layer-id="0184220157394" style="fill: rgb(225, 200, 87); fill-opacity: 1;"/></svg>