<svg viewBox="0 0 575 575" class="roots-wrapper"><g transform="rotate(0 0 0)"><svg viewBoxSize="575" data-root-id="7038449257328" xmlns="http://www.w3.org/2000/svg" id="Layer_1" dataName="Layer 1" viewBox="212.99989318847656 118 574.0001220703125 783.8700561523438" height="74" width="54.18750193277995" y="221.0850067138672" x="260.406" preserveAspectRatio="xMinYMin" zoom="1" editorType="buyer" data-layer-role="icon" style="position: absolute; height: 74px; width: 54.1875px; top: 221.085px; left: 260.406px;"><path class="cls-1" d="M618,786.66l-27.5,19.28-90.43-68.78-.05,0-.06,0-90.42,68.78L382,786.67a3.31,3.31,0,0,1,.3-.25L484,709.08V667.93h.09l4.69,4.69c3.32,3.31,6.67,6.89,11.3,6.89s8.74-4.42,11.14-6.89l4.66-4.69H516v41.16l101.68,77.33Z" name="Layer %{number}" zoom="1" data-layer-id="2023094857350" style="fill: rgb(225, 200, 87); fill-opacity: 1;"></path><polygon class="cls-1" points="500 737.12 500.05 737.16 499.94 737.16 500 737.12" name="Layer %{number}" zoom="1" data-layer-id="9259471957361" style="fill: rgb(225, 200, 87); fill-opacity: 1;"></polygon><path class="cls-1" d="M500,901.87a29.59,29.59,0,0,1-17-5.33l-192.56-135A180.12,180.12,0,0,1,213,613.6V287.8a70.19,70.19,0,0,1,25.76-54.45A50.76,50.76,0,0,1,271,222H729.11a50.64,50.64,0,0,1,32,11.31A70.19,70.19,0,0,1,787,287.8V613.89A179.59,179.59,0,0,1,709.7,761.46L517,896.54A29.59,29.59,0,0,1,500,901.87Zm1.38-31.55h0ZM271,254a18.72,18.72,0,0,0-11.88,4.11A38.32,38.32,0,0,0,245,287.8V613.6a148.15,148.15,0,0,0,63.74,121.73L500,869.35,691.4,735.21A147.63,147.63,0,0,0,755,613.89V287.8a38.29,38.29,0,0,0-14.1-29.75A18.56,18.56,0,0,0,729.11,254Z" name="Layer %{number}" zoom="1" data-layer-id="0646883457372" style="fill: rgb(225, 200, 87); fill-opacity: 1;"></path><path class="cls-1" d="M755,287.8v25.77L573.18,423.36v187.4s-59.56,59.39-62,61.86-6.5,6.89-11.14,6.89-8-3.58-11.3-6.89l-62-61.86V423.36L245,313.57V287.8a38.58,38.58,0,0,1,1.51-10.7L458.82,405.3V597.49L500,638.6l41.18-41.11V405.3L753.46,277.1A38.58,38.58,0,0,1,755,287.8Z" name="Layer %{number}" zoom="1" data-layer-id="6183466257383" style="fill: rgb(225, 200, 87); fill-opacity: 1;"></path><path class="cls-1" d="M641.33,176v32H358.67V176a32,32,0,0,1,32-32h.08v32H484V118h32v58h93.25V144h.09A32,32,0,0,1,641.33,176Z" name="Layer %{number}" zoom="1" data-layer-id="0184220157394" style="fill: rgb(225, 200, 87); fill-opacity: 1;"></path></svg></g><g transform="rotate(0 0 0)"><svg viewBoxSize="575" data-root-id="3845463157405" xmlns="http://www.w3.org/2000/svg" y="345.0850067138672" viewBox="0.33000001311302185 2.259999990463257 144.05999755859375 8.829999923706055" x="215.47000274658203" height="8.829999923706055" width="144.05999755859375" fontUrl="http://fonts.gstatic.com/s/ropasans/v15/EYqxmaNOzLlWtsZSScyKWjloU5KP2g.ttf" zoom="1" editorType="buyer" data-layer-role="slogan" style="position: absolute; top: 345.085px; width: 144.06px; height: 8.83px; left: 215.47px;"><g data-horizontal-grow="center" zoom="1" root="[object Object]" style="fill: rgb(255, 255, 255); fill-opacity: 1;"><path d="M9.53 2.42L10.70 2.42L8.74 10.93L7.25 10.93L5.51 3.68L3.78 10.93L2.30 10.93L0.33 2.42L1.50 2.42L3.08 9.72L4.76 2.42L6.27 2.42L7.96 9.72L9.53 2.42ZM15.00 2.42L19.48 2.42L19.48 3.42L16.10 3.42L16.10 6.11L19.22 6.11L19.22 7.10L16.10 7.10L16.10 9.93L19.48 9.93L19.48 10.93L15.00 10.93L15.00 2.42ZM26.59 2.26Q27.96 2.26 28.67 2.82Q29.39 3.38 29.39 4.34L29.39 4.34L29.39 4.63Q29.39 5.99 28.19 6.51L28.19 6.51Q28.92 6.67 29.33 7.18Q29.74 7.70 29.74 8.45L29.74 8.45L29.74 8.74Q29.74 9.82 28.98 10.45Q28.22 11.09 26.68 11.09L26.68 11.09Q25.81 11.09 24.30 11.01L24.30 11.01L24.30 2.31Q25.50 2.26 26.59 2.26L26.59 2.26ZM26.42 3.21Q25.96 3.21 25.41 3.25L25.41 3.25L25.41 6.16L26.68 6.16Q27.46 6.16 27.87 5.79Q28.28 5.41 28.28 4.73L28.28 4.73L28.28 4.51Q28.28 3.86 27.84 3.54Q27.40 3.21 26.42 3.21L26.42 3.21ZM26.76 7.06L25.41 7.06L25.41 10.05Q25.84 10.09 26.12 10.11Q26.40 10.13 26.68 10.13L26.68 10.13Q27.68 10.13 28.16 9.74Q28.63 9.36 28.63 8.67L28.63 8.67L28.63 8.40Q28.63 7.06 26.76 7.06L26.76 7.06ZM41.89 2.26Q43.43 2.26 44.27 3.14Q45.11 4.02 45.11 5.67L45.11 5.67L45.11 7.80Q45.11 9.39 44.27 10.24Q43.43 11.09 41.82 11.09L41.82 11.09Q40.72 11.09 39.51 11.01L39.51 11.01L39.51 2.31Q40.68 2.26 41.89 2.26L41.89 2.26ZM41.82 3.20Q41.42 3.20 40.61 3.22L40.61 3.22L40.61 10.06Q41.38 10.14 41.82 10.14L41.82 10.14Q42.82 10.14 43.41 9.56Q44.01 8.98 44.01 7.89L44.01 7.89L44.01 5.59Q44.01 4.41 43.43 3.80Q42.86 3.20 41.82 3.20L41.82 3.20ZM49.93 2.42L54.42 2.42L54.42 3.42L51.04 3.42L51.04 6.11L54.16 6.11L54.16 7.10L51.04 7.10L51.04 9.93L54.42 9.93L54.42 10.93L49.93 10.93L49.93 2.42ZM63.76 2.42L64.93 2.42L62.37 10.93L60.91 10.93L58.43 2.42L59.60 2.42L61.64 9.87L63.76 2.42ZM69.07 2.42L73.56 2.42L73.56 3.42L70.18 3.42L70.18 6.11L73.30 6.11L73.30 7.10L70.18 7.10L70.18 9.93L73.56 9.93L73.56 10.93L69.07 10.93L69.07 2.42ZM78.38 2.42L79.48 2.42L79.48 9.96L82.86 9.96L82.86 10.93L78.38 10.93L78.38 2.42ZM89.61 2.26Q91.06 2.26 91.75 2.99Q92.44 3.72 92.44 5.06L92.44 5.06L92.44 8.29Q92.44 9.63 91.75 10.36Q91.06 11.09 89.61 11.09L89.61 11.09Q88.15 11.09 87.46 10.36Q86.77 9.63 86.77 8.29L86.77 8.29L86.77 5.06Q86.77 3.72 87.46 2.99Q88.15 2.26 89.61 2.26L89.61 2.26ZM89.61 3.24Q88.75 3.24 88.31 3.67Q87.88 4.10 87.88 4.93L87.88 4.93L87.88 8.41Q87.88 9.24 88.31 9.68Q88.75 10.11 89.61 10.11L89.61 10.11Q90.47 10.11 90.90 9.68Q91.34 9.24 91.34 8.41L91.34 8.41L91.34 4.94Q91.34 4.11 90.90 3.67Q90.47 3.24 89.61 3.24L89.61 3.24ZM99.58 2.26Q101.11 2.26 101.86 2.88Q102.61 3.50 102.61 4.64L102.61 4.64L102.61 4.95Q102.61 6.18 101.88 6.84Q101.15 7.50 99.68 7.50L99.68 7.50Q99.09 7.50 98.43 7.40L98.43 7.40L98.43 10.93L97.33 10.93L97.33 2.33Q98.43 2.26 99.58 2.26L99.58 2.26ZM99.55 3.20Q98.98 3.20 98.43 3.22L98.43 3.22L98.43 6.45Q99.21 6.55 99.63 6.55L99.63 6.55Q101.50 6.55 101.50 4.90L101.50 4.90L101.50 4.68Q101.50 3.94 101.03 3.57Q100.56 3.20 99.55 3.20L99.55 3.20ZM114.17 10.93L113.09 10.93L113.03 3.94L111.22 10.05L109.86 10.05L108.05 3.94L107.98 10.93L106.91 10.93L106.98 2.42L108.62 2.42L110.55 9.06L112.46 2.42L114.09 2.42L114.17 10.93ZM119.06 2.42L123.54 2.42L123.54 3.42L120.16 3.42L120.16 6.11L123.28 6.11L123.28 7.10L120.16 7.10L120.16 9.93L123.54 9.93L123.54 10.93L119.06 10.93L119.06 2.42ZM133.98 10.93L132.26 10.93L129.45 3.74L129.45 10.93L128.36 10.93L128.36 2.42L130.13 2.42L132.89 9.61L132.89 2.42L133.98 2.42L133.98 10.93ZM138.34 2.42L144.39 2.42L144.39 3.42L141.92 3.42L141.92 10.93L140.81 10.93L140.81 3.42L138.34 3.42L138.34 2.42Z" transform="translate(0, 0)"></path></g></svg></g><g transform="rotate(0 0 0)"><svg viewBoxSize="575" data-root-id="9307233357437" xmlns="http://www.w3.org/2000/svg" y="305.0850067138672" viewBox="0.7199999690055847 5.659999847412109 96.86000061035156 28.270000457763672" x="239.06999969482422" height="28.270000457763672" width="96.86000061035156" fontUrl="http://fonts.gstatic.com/s/bellefair/v14/kJExBuYY6AAuhiXUxG19__A2pOdvDA.ttf" zoom="1" editorType="buyer" data-layer-role="brandName" style="position: absolute; top: 305.085px; width: 96.86px; height: 28.27px; left: 239.07px;"><g data-horizontal-grow="center" zoom="1" root="[object Object]" style="fill: rgb(255, 255, 255); fill-opacity: 1;"><path d="M17.48 22.88L8.02 22.88L5.59 28.92Q5.02 30.32 5.02 31.24L5.02 31.24Q5.02 32.49 6.16 33.02L6.16 33.02L0.72 33.02Q1.10 33.02 1.82 32.26Q2.55 31.50 3.50 29.26L3.50 29.26L13.41 5.66L23.26 29.37Q24.09 31.43 24.87 32.19Q25.65 32.95 26.11 33.02L26.11 33.02L19.80 33.02Q20.75 32.57 20.75 31.62L20.75 31.62Q20.75 30.82 20.14 29.34L20.14 29.34L17.48 22.88ZM8.66 21.32L16.87 21.32L12.73 11.17L8.66 21.32ZM31.01 10.41Q31.01 8.89 30.65 8.11Q30.29 7.33 29.83 7.07Q29.37 6.80 29.37 6.88L29.37 6.88L35.42 6.88Q35.42 6.80 34.96 7.07Q34.50 7.33 34.12 8.11Q33.74 8.89 33.74 10.41L33.74 10.41L33.74 31.50L39.98 31.50Q41.69 31.50 42.92 30.80Q44.16 30.10 44.69 28.99L44.69 28.99L44.00 33.02L29.37 33.02Q29.37 33.14 29.83 32.85Q30.29 32.57 30.65 31.71Q31.01 30.86 31.01 29.22L31.01 29.22L31.01 10.41ZM64.75 8.89Q64.75 8.13 64.33 7.58Q63.92 7.03 63.04 6.88L63.04 6.88L69.43 6.88Q68.93 6.95 68.10 7.75Q67.26 8.55 66.35 10.72L66.35 10.72L56.73 33.93L46.97 10.60Q46.13 8.59 45.31 7.81Q44.50 7.03 43.97 6.88L43.97 6.88L50.31 6.88Q49.29 7.14 49.29 8.21L49.29 8.21Q49.29 8.78 49.55 9.42Q49.82 10.07 49.86 10.18L49.86 10.18L57.23 28.23L64.37 10.68Q64.75 9.80 64.75 8.89L64.75 8.89ZM70.76 20.25Q70.76 16.23 72.48 13.07Q74.21 9.92 77.35 8.17Q80.48 6.42 84.59 6.42L84.59 6.42Q88.01 6.42 90.99 7.92Q93.97 9.42 95.78 12.43Q97.58 15.43 97.58 19.65L97.58 19.65Q97.58 23.67 95.85 26.83Q94.13 29.98 90.99 31.73Q87.86 33.48 83.75 33.48L83.75 33.48Q80.33 33.48 77.35 31.98Q74.37 30.48 72.56 27.47Q70.76 24.47 70.76 20.25L70.76 20.25ZM94.54 20.22Q94.54 16.76 93.12 13.96Q91.69 11.17 89.20 9.59Q86.72 8.02 83.60 8.02L83.60 8.02Q80.75 8.02 78.53 9.46Q76.30 10.91 75.05 13.55Q73.80 16.19 73.80 19.68L73.80 19.68Q73.80 23.14 75.22 25.93Q76.65 28.73 79.13 30.30Q81.62 31.88 84.74 31.88L84.74 31.88Q87.59 31.88 89.81 30.44Q92.04 28.99 93.29 26.35Q94.54 23.71 94.54 20.22L94.54 20.22Z" transform="translate(0, 0)"></path></g></svg></g></svg>