<svg id="visual" viewBox="0 0 900 675" width="900" height="675" xmlns="http://www.w3.org/2000/svg" xmlns:xlink="http://www.w3.org/1999/xlink" version="1.1"><path d="M0 574L12.5 569.3C25 564.7 50 555.3 75 534.5C100 513.7 125 481.3 150 470C175 458.7 200 468.3 225 465.3C250 462.3 275 446.7 300 446.5C325 446.3 350 461.7 375 484.5C400 507.3 425 537.7 450 542.7C475 547.7 500 527.3 525 517.5C550 507.7 575 508.3 600 517.7C625 527 650 545 675 536.3C700 527.7 725 492.3 750 486.7C775 481 800 505 825 499.2C850 493.3 875 457.7 887.5 439.8L900 422L900 676L887.5 676C875 676 850 676 825 676C800 676 775 676 750 676C725 676 700 676 675 676C650 676 625 676 600 676C575 676 550 676 525 676C500 676 475 676 450 676C425 676 400 676 375 676C350 676 325 676 300 676C275 676 250 676 225 676C200 676 175 676 150 676C125 676 100 676 75 676C50 676 25 676 12.5 676L0 676Z" fill="#091825" stroke-linecap="round" stroke-linejoin="miter"></path></svg>