<?xml version="1.0" standalone="no"?>
<svg xmlns:xlink="http://www.w3.org/1999/xlink" id="wave" style="transform:rotate(0deg); transition: 0.3s" viewBox="0 0 1440 350" version="1.1" xmlns="http://www.w3.org/2000/svg"><defs><linearGradient id="sw-gradient-0" x1="0" x2="0" y1="1" y2="0"><stop stop-color="rgba(9, 24, 37, 1)" offset="0%"/><stop stop-color="rgba(9, 24, 37, 1)" offset="100%"/></linearGradient></defs><path style="transform:translate(0, 0px); opacity:1" fill="url(#sw-gradient-0)" d="M0,245L26.7,239.2C53.3,233,107,222,160,192.5C213.3,163,267,117,320,116.7C373.3,117,427,163,480,175C533.3,187,587,163,640,151.7C693.3,140,747,140,800,122.5C853.3,105,907,70,960,64.2C1013.3,58,1067,82,1120,99.2C1173.3,117,1227,128,1280,145.8C1333.3,163,1387,187,1440,175C1493.3,163,1547,117,1600,122.5C1653.3,128,1707,187,1760,180.8C1813.3,175,1867,105,1920,70C1973.3,35,2027,35,2080,52.5C2133.3,70,2187,105,2240,140C2293.3,175,2347,210,2400,239.2C2453.3,268,2507,292,2560,262.5C2613.3,233,2667,152,2720,122.5C2773.3,93,2827,117,2880,122.5C2933.3,128,2987,117,3040,99.2C3093.3,82,3147,58,3200,40.8C3253.3,23,3307,12,3360,46.7C3413.3,82,3467,163,3520,169.2C3573.3,175,3627,105,3680,81.7C3733.3,58,3787,82,3813,93.3L3840,105L3840,350L3813.3,350C3786.7,350,3733,350,3680,350C3626.7,350,3573,350,3520,350C3466.7,350,3413,350,3360,350C3306.7,350,3253,350,3200,350C3146.7,350,3093,350,3040,350C2986.7,350,2933,350,2880,350C2826.7,350,2773,350,2720,350C2666.7,350,2613,350,2560,350C2506.7,350,2453,350,2400,350C2346.7,350,2293,350,2240,350C2186.7,350,2133,350,2080,350C2026.7,350,1973,350,1920,350C1866.7,350,1813,350,1760,350C1706.7,350,1653,350,1600,350C1546.7,350,1493,350,1440,350C1386.7,350,1333,350,1280,350C1226.7,350,1173,350,1120,350C1066.7,350,1013,350,960,350C906.7,350,853,350,800,350C746.7,350,693,350,640,350C586.7,350,533,350,480,350C426.7,350,373,350,320,350C266.7,350,213,350,160,350C106.7,350,53,350,27,350L0,350Z"/></svg>